<?xml version="1.0" encoding="UTF-8"?>
<svg id="_レイヤー_2" data-name="レイヤー 2" xmlns="http://www.w3.org/2000/svg" viewBox="0 0 48.89 66.87">
  <defs>
    <style>
      .cls-1 {
        fill: #2a2b2b;
      }
    </style>
  </defs>
  <g id="_レイヤー_1-2" data-name="レイヤー 1">
    <g>
      <g>
        <path class="cls-1" d="m9.52,6.46h29.89l1.64-.03C36.67,2.44,30.84,0,24.44,0S12.22,2.44,7.84,6.43l1.68.03Z"/>
        <path class="cls-1" d="m39.41,13.1h-10.99c-.05,2.79-.21,5.63-.51,8.43h20.98c-.37-2.97-1.27-5.77-2.61-8.31l-6.87-.12Z"/>
        <path class="cls-1" d="m29.7,28.49c2.58,5.41,6.96,9.84,12.71,13.02,3.31-3.53,5.6-8.02,6.38-13.02h-19.09Z"/>
        <path class="cls-1" d="m18.41,28.49H.1c.86,5.46,3.51,10.33,7.33,13.98,3.65-2.17,6.5-4.81,8.29-7.67,1.11-1.74,2-3.73,2.7-6.31Z"/>
        <path class="cls-1" d="m25.14,34.01c-.7,1.62-1.4,3.08-2.21,4.34-2.27,3.64-5.17,6.59-8.37,8.87,3.03,1.33,6.37,2.07,9.88,2.07,3.89,0,7.57-.9,10.84-2.51-4.59-3.47-8.08-7.83-10.14-12.77Z"/>
        <path class="cls-1" d="m20.19,13.1h-10.66l-6.92.12c-1.33,2.54-2.23,5.34-2.61,8.31h19.67c.35-2.79.46-5.64.51-8.43Z"/>
      </g>
      <g>
        <path class="cls-1" d="m7.26,59.17v7.59h-1.47l-2.79-4.2v4.2h-1.72v-7.59h1.45l2.82,4.26v-4.26h1.72Z"/>
        <path class="cls-1" d="m13.12,64.32c0,1.54-.73,2.55-2.42,2.55s-2.42-1.01-2.42-2.55v-.64c0-1.68.88-2.53,2.42-2.53s2.42.85,2.42,2.53v.64Zm-1.65-.08v-.48c0-.81-.18-1.22-.77-1.22s-.77.41-.77,1.22v.48c0,.73.09,1.24.77,1.24s.77-.52.77-1.24Z"/>
        <path class="cls-1" d="m13.63,61.26h.7v-1.21h1.65v1.21h.99v1.39h-.99v2.06c0,.44.12.63.53.63h.46v1.43h-.65c-1.34,0-1.99-.3-1.99-1.85v-2.27h-.7v-1.39Z"/>
        <path class="cls-1" d="m25.39,59.17v1.52h-2.97v1.56h2.64v1.52h-2.64v2.99h-1.83v-7.59h4.8Z"/>
        <path class="cls-1" d="m30.76,64.32c0,1.54-.73,2.55-2.42,2.55s-2.42-1.01-2.42-2.55v-.64c0-1.68.88-2.53,2.42-2.53s2.42.85,2.42,2.53v.64Zm-1.65-.08v-.48c0-.81-.18-1.22-.77-1.22s-.77.41-.77,1.22v.48c0,.73.09,1.24.77,1.24s.77-.52.77-1.24Z"/>
        <path class="cls-1" d="m36.36,66.76h-1.62v-.43c-.22.35-.47.54-1.16.54-1.08,0-2.02-.53-2.02-2.18v-3.43h1.65v3.12c0,.75.18,1.08.73,1.08s.77-.31.77-1.07v-3.14h1.65v5.5Z"/>
        <path class="cls-1" d="m37.36,61.26h1.61v.42c.18-.22.58-.53,1.17-.53,1.08,0,2.02.48,2.02,2.16v3.45h-1.65v-3.14c0-.74-.18-1.07-.7-1.07-.57,0-.79.35-.79,1.06v3.15h-1.65v-5.5Z"/>
        <path class="cls-1" d="m46.16,59.17h1.65v7.59h-1.65v-.24c-.26.22-.61.35-1.03.35-1.41,0-2.16-1.01-2.16-2.49v-.77c0-1.62.88-2.46,2.16-2.46.38,0,.74.09,1.03.3v-2.28Zm0,5.07v-.6c0-.74-.21-1.1-.77-1.1-.59,0-.77.41-.77,1.22v.48c0,.73.09,1.24.77,1.24s.77-.52.77-1.24Z"/>
      </g>
    </g>
  </g>
</svg>