<?xml version="1.0" encoding="UTF-8"?>
<svg id="_レイヤー_2" data-name="レイヤー 2" xmlns="http://www.w3.org/2000/svg" viewBox="0 0 51.85 83.59">
  <defs>
    <style>
      .cls-1 {
        fill: #2a2b2b;
      }
    </style>
  </defs>
  <g id="_レイヤー_1-2" data-name="レイヤー 1">
    <g>
      <g>
        <path class="cls-1" d="m10.45,6.46h29.89l1.64-.03C37.59,2.44,31.76,0,25.37,0S13.14,2.44,8.76,6.43l1.68.03Z"/>
        <path class="cls-1" d="m40.33,13.1h-10.99c-.05,2.79-.21,5.63-.51,8.43h20.98c-.37-2.97-1.27-5.77-2.61-8.31l-6.87-.12Z"/>
        <path class="cls-1" d="m30.62,28.49c2.58,5.41,6.96,9.84,12.71,13.02,3.31-3.53,5.6-8.02,6.38-13.02h-19.09Z"/>
        <path class="cls-1" d="m19.34,28.49H1.02c.86,5.46,3.51,10.33,7.33,13.98,3.65-2.17,6.5-4.81,8.29-7.67,1.11-1.74,2-3.73,2.7-6.31Z"/>
        <path class="cls-1" d="m26.06,34.01c-.7,1.62-1.4,3.08-2.21,4.34-2.27,3.64-5.17,6.59-8.37,8.87,3.03,1.33,6.37,2.07,9.88,2.07,3.89,0,7.57-.9,10.84-2.51-4.59-3.47-8.08-7.83-10.14-12.77Z"/>
        <path class="cls-1" d="m21.11,13.1h-10.66l-6.92.12c-1.33,2.54-2.23,5.34-2.61,8.31h19.67c.35-2.79.46-5.64.51-8.43Z"/>
      </g>
      <g>
        <path class="cls-1" d="m17.76,59.18v10.35h-2.01l-3.81-5.73v5.73h-2.34v-10.35h1.98l3.84,5.8v-5.8h2.34Z"/>
        <path class="cls-1" d="m25.47,69.68c-2.35,0-4.08-1.43-4.08-4.52v-1.62c0-3.12,1.73-4.52,4.08-4.52s4.08,1.4,4.08,4.52v1.62c0,3.09-1.73,4.52-4.08,4.52Zm-1.59-4.52c0,1.7.55,2.45,1.59,2.45s1.59-.75,1.59-2.45v-1.62c0-1.7-.55-2.45-1.59-2.45s-1.59.75-1.59,2.45v1.62Z"/>
        <path class="cls-1" d="m40.72,59.18v2.07h-2.7v8.28h-2.49v-8.28h-2.7v-2.07h7.89Z"/>
      </g>
      <g>
        <path class="cls-1" d="m6.54,73.09v2.07H2.49v2.13h3.6v2.07h-3.6v4.08H0v-10.35h6.54Z"/>
        <path class="cls-1" d="m13.65,83.59c-2.36,0-4.08-1.43-4.08-4.52v-1.62c0-3.12,1.72-4.52,4.08-4.52s4.08,1.4,4.08,4.52v1.62c0,3.09-1.73,4.52-4.08,4.52Zm-1.59-4.52c0,1.7.55,2.45,1.59,2.45s1.59-.75,1.59-2.45v-1.62c0-1.7-.55-2.45-1.59-2.45s-1.59.75-1.59,2.45v1.62Z"/>
        <path class="cls-1" d="m29.52,73.09v6.17c0,3.06-1.79,4.33-4.08,4.33s-4.08-1.28-4.08-4.32v-6.18h2.49v6.18c0,1.51.45,2.25,1.59,2.25s1.59-.74,1.59-2.25v-6.18h2.49Z"/>
        <path class="cls-1" d="m40.85,73.09v10.35h-2.01l-3.81-5.73v5.73h-2.34v-10.35h1.98l3.84,5.8v-5.8h2.34Z"/>
        <path class="cls-1" d="m43.91,83.44v-10.35h3.85c2.35,0,4.08,1.16,4.08,4.42v1.5c0,3.24-1.73,4.42-4.08,4.42h-3.85Zm6.92-4.42v-1.5c0-1.39-.3-2.35-1.59-2.35h-1.37v6.21h1.37c1.29,0,1.59-.96,1.59-2.35Z"/>
      </g>
    </g>
  </g>
</svg>