<?xml version="1.0" encoding="UTF-8"?>
<svg id="_レイヤー_2" data-name="" xmlns="http://www.w3.org/2000/svg" viewBox="0 0 48.89 69.53">
  <defs>
    <style>
      .cls-1 {
        fill: #c5991d;
      }

      .cls-2 {
        fill: #305166;
      }
    </style>
  </defs>
  <g id="_レイヤー_1-2" data-name="">
    <g>
      <g>
        <path class="cls-1" d="m9.52,6.46h29.89l1.64-.03C36.67,2.44,30.84,0,24.44,0S12.22,2.44,7.84,6.43l1.68.03Z"/>
        <path class="cls-1" d="m39.41,13.1h-10.99c-.05,2.79-.21,5.63-.51,8.43h20.98c-.37-2.97-1.27-5.77-2.61-8.31l-6.87-.12Z"/>
        <path class="cls-1" d="m29.7,28.49c2.58,5.41,6.96,9.84,12.71,13.02,3.31-3.53,5.6-8.02,6.38-13.02h-19.09Z"/>
        <path class="cls-1" d="m18.41,28.49H.1c.86,5.46,3.51,10.33,7.33,13.98,3.65-2.17,6.5-4.81,8.29-7.67,1.11-1.74,2-3.73,2.7-6.31Z"/>
        <path class="cls-1" d="m25.14,34.01c-.7,1.62-1.4,3.08-2.21,4.34-2.27,3.64-5.17,6.59-8.37,8.87,3.03,1.33,6.37,2.07,9.88,2.07,3.89,0,7.57-.9,10.84-2.51-4.59-3.47-8.08-7.83-10.14-12.77Z"/>
        <path class="cls-1" d="m20.19,13.1h-10.66l-6.92.12c-1.33,2.54-2.23,5.34-2.61,8.31h19.67c.35-2.79.46-5.64.51-8.43Z"/>
      </g>
      <g>
        <path class="cls-2" d="m.74,69.53l3.6-10.35h2.4l3.6,10.35h-2.65l-.55-1.77h-3.2l-.54,1.77H.74Zm3.84-3.84h1.91l-.95-3.06-.96,3.06Z"/>
        <path class="cls-2" d="m18.44,64.43l2.79-5.25h2.33v10.35h-2.34v-5.85l-2.13,4.14h-1.33l-2.08-4.09v5.8h-2.34v-10.35h2.31l2.8,5.25Z"/>
        <path class="cls-2" d="m33.88,69.53l-2.23-3.97-.9,1.23v2.75h-2.49v-10.35h2.49v3.84l2.67-3.84h2.9l-3.06,4.18,3.6,6.17h-2.97Z"/>
        <path class="cls-2" d="m43.94,59.18c2.45,0,3.87.86,3.87,2.75,0,1.06-.46,1.68-1.19,2.16.95.46,1.52,1.2,1.52,2.47,0,1.65-1.11,2.97-3.87,2.97h-3.94v-10.35h3.61Zm-1.12,3.95h1.05c1,0,1.46-.32,1.46-.92s-.31-.98-1.68-.98h-.83v1.89Zm0,4.33h1.19c1.11,0,1.65-.38,1.65-1.14,0-.84-.57-1.12-1.83-1.12h-1v2.26Z"/>
      </g>
    </g>
  </g>
</svg>